# xmcd
#
# Track frame offsets: 
#        157
#        13349
#        35875
#        46463
#        67524
#        82100
#        99157
#        113219
#        127692
#        142505
#        163257
#        178482
#        191902
#        205844
#        219147
#        228821
#        243752
#        274403
#        284415
#        295351
#        308298
#
# Disc length: 4313 seconds
#
# Revision: 1
# Processed by: cddbd v1.5.2PL0 Copyright (c) Steve Scherf et al.
# Submitted via: ExactAudioCopy v1.0b3
#
DISCID=2910d715
DTITLE=Various Artist - Holy Spirit [Disc 2]
DYEAR=1900
DGENRE=Religious
TTITLE0=Armstrong Brothers - Can You Treat Him Like A Brother
TTITLE1=Moss, Bill and The Celestials - You've Got Serve Somebody
TTITLE2=Southerners, The - I'll Wait For The Love
TTITLE3=Meditation Singers, The - Good Old Gospel Music
TTITLE4=Robinson, Roscoe - There's A Creator
TTITLE5=Mighty Sons Of Glory - Don't Forget The Bridge
TTITLE6=Norwood, Dorothy - There's Got To Be Rain In Your Life
TTITLE7=Soul Stirrers - Lord, Oh Lord, I Believe
TTITLE8=Meditation Singers, The - I Love My Jesus
TTITLE9=Silver Gate Quartet Of North Carolina, The - Watch That Rogue
TTITLE10=Fantastic Violinaires, The - I'm Not Worried
TTITLE11=Hopson Family, The - Hello Sunshine
TTITLE12=Norwood, Dorothy - Come And Go With Me
TTITLE13=Traveling Echoes, The - I'd Like To Know 
TTITLE14=Spiritual Interns, The - He Walks With Me
TTITLE15=Brooklyn Allstars, The - In The Ghetto
TTITLE16=Violinaires, The - Message To My Friends
TTITLE17=Norwood, Dorothy - Winding Up
TTITLE18=Mays, Rev. Oris - Nobody Can Turn Me Around
TTITLE19=Traveling Echoes, The - God Don't Change
TTITLE20=Winston, Stanley - No More Ghettos In America
EXTD=
EXTT0=
EXTT1=
EXTT2=
EXTT3=
EXTT4=
EXTT5=
EXTT6=
EXTT7=
EXTT8=
EXTT9=
EXTT10=
EXTT11=
EXTT12=
EXTT13=
EXTT14=
EXTT15=
EXTT16=
EXTT17=
EXTT18=
EXTT19=
EXTT20=
PLAYORDER=
